<?xml version="1.0" standalone="no"?>
<!DOCTYPE svg PUBLIC "-//W3C//DTD SVG 20010904//EN"
 "http://www.w3.org/TR/2001/REC-SVG-20010904/DTD/svg10.dtd">
<svg version="1.0" xmlns="http://www.w3.org/2000/svg"
 width="917.000000pt" height="1280.000000pt" viewBox="0 0 917.000000 1280.000000"
 preserveAspectRatio="xMidYMid meet">
<metadata>
Created by potrace 1.15, written by Peter Selinger 2001-2017
</metadata>
<g transform="translate(0.000000,1280.000000) scale(0.100000,-0.100000)"
fill="#000000" stroke="none">
<path d="M4576 9970 c-4 -25 -17 -97 -28 -160 -43 -246 -57 -329 -78 -450 -12
-69 -34 -197 -50 -285 -16 -88 -38 -216 -50 -285 -12 -69 -30 -172 -40 -230
-10 -58 -29 -163 -41 -235 -12 -71 -32 -182 -43 -245 l-21 -115 -279 485
c-153 267 -281 487 -283 490 -6 6 -5 2 46 -285 22 -121 58 -326 81 -455 23
-129 53 -297 67 -373 13 -76 23 -142 21 -148 -2 -5 -37 15 -78 44 -41 29 -282
199 -535 378 -1309 926 -1205 853 -1205 847 0 -2 263 -381 583 -843 321 -462
583 -841 582 -842 -1 -2 -241 62 -535 142 -293 80 -534 144 -535 143 -1 -2
236 -172 528 -377 l530 -375 -294 -53 c-284 -51 -595 -107 -1112 -199 -136
-24 -359 -64 -496 -89 -138 -25 -259 -45 -270 -45 -38 0 -22 -17 22 -23 23 -2
197 -33 387 -67 528 -94 769 -137 955 -170 489 -86 594 -106 600 -111 3 -4
-206 -129 -465 -279 -259 -150 -469 -274 -468 -276 2 -1 116 18 253 42 294 51
449 79 600 105 61 10 173 30 249 44 77 14 145 25 152 25 7 0 -272 -411 -620
-913 -712 -1028 -654 -942 -634 -931 13 8 556 392 1402 991 142 101 260 182
262 180 2 -1 -12 -59 -30 -127 -19 -69 -57 -215 -86 -325 -29 -110 -74 -281
-100 -380 -61 -231 -63 -242 -52 -230 5 6 168 240 362 520 194 281 354 512
356 514 8 9 13 -9 33 -124 12 -66 30 -172 41 -235 11 -63 31 -178 45 -255 65
-376 76 -438 94 -540 43 -247 73 -416 91 -520 56 -320 71 -406 83 -470 l12
-70 28 160 c16 88 37 207 47 265 10 58 28 161 40 230 12 69 34 197 50 285 16
88 38 216 50 285 12 69 30 172 40 230 10 58 29 164 41 235 12 72 32 182 43
245 l21 115 279 -485 c153 -267 281 -487 283 -490 6 -6 5 -2 -46 285 -22 121
-58 326 -81 455 -23 129 -53 297 -67 373 -13 76 -23 143 -21 148 2 6 60 -30
128 -79 69 -48 240 -170 380 -269 140 -99 488 -344 772 -546 585 -413 544
-385 532 -365 -5 8 -267 387 -583 842 -315 455 -572 829 -570 831 3 2 242 -61
533 -141 291 -79 530 -143 532 -142 1 2 -237 172 -529 378 -291 206 -526 375
-521 377 8 2 377 68 799 143 193 34 683 122 1040 186 143 25 279 49 303 51 43
6 59 23 21 23 -12 0 -119 18 -238 39 -119 22 -346 63 -506 91 -159 28 -414 74
-565 101 -151 27 -351 63 -445 79 -93 17 -183 33 -198 36 -25 5 34 42 447 282
262 151 475 276 474 278 -3 2 -64 -8 -363 -61 -82 -14 -201 -35 -262 -45 -62
-11 -164 -29 -225 -40 -62 -10 -180 -31 -262 -45 -81 -14 -149 -25 -151 -23
-1 2 285 417 636 923 351 506 639 921 639 923 0 6 30 27 -1254 -881 -231 -163
-421 -296 -422 -294 -2 2 12 59 30 127 19 69 57 215 86 325 29 110 74 281 100
380 61 232 63 242 52 230 -5 -5 -168 -239 -362 -520 -194 -280 -354 -512 -356
-514 -8 -9 -13 9 -33 124 -12 66 -30 172 -41 235 -11 63 -32 180 -46 260 -53
307 -71 410 -135 775 -11 61 -30 173 -44 250 -59 340 -76 434 -88 500 l-13 70
-8 -45z"/>
</g>
</svg>
